<svg width="200" height="40" viewBox="0 0 200 40" fill="none" xmlns="http://www.w3.org/2000/svg">
<g clip-path="url(#clip0_7608_32904)">
<path d="M147.655 31.4069L140.944 38.9073C140.636 39.2468 140.202 39.4441 139.736 39.4441H135.047C133.649 39.4441 132.907 37.794 133.839 36.7519L140.494 29.2357C144.142 26.7014 147.655 31.4069 147.655 31.4069Z" fill="white"/>
<path d="M160.129 39.452H155.424C154.958 39.452 154.516 39.2467 154.208 38.8994L147.655 31.4069C147.655 31.4069 144.142 26.7013 140.494 29.2436L144.394 24.8302C145.223 23.8986 146.408 23.3617 147.647 23.3617C148.279 23.3617 148.887 23.4959 149.439 23.7486C150 24.0012 150.505 24.3723 150.916 24.846L161.345 36.7598C162.261 37.8177 161.519 39.452 160.129 39.452Z" fill="white"/>
<path d="M152.179 26.1488L148.303 30.5937C147.892 31.0674 147.387 31.4385 146.826 31.6912C146.274 31.9438 145.658 32.078 145.034 32.078C143.787 32.078 142.602 31.5412 141.781 30.6095L131.217 18.6879C130.294 17.6457 131.036 15.9956 132.425 15.9956H137.115C137.573 15.9956 138.015 16.193 138.323 16.5325L145.034 24.0329C145.034 24.0408 148.532 28.4936 152.179 26.1488Z" fill="white"/>
<path d="M173.962 1.15266L152.179 26.1487C148.532 28.4857 145.042 24.0328 145.042 24.0328L172.999 0.165769C173.646 -0.378996 174.522 0.505261 173.962 1.15266Z" fill="white"/>
<path d="M26.5988 23.409C27.9725 24.6881 28.6436 26.5039 28.6436 28.833V39.452H23.6381V29.7883C23.6381 27.3645 22.3275 26.0855 20.4169 26.0855C18.3404 26.0855 16.8483 27.554 16.8483 29.9462V39.452H11.8427V29.8199C11.8427 27.4908 10.5006 26.0855 8.55835 26.0855C6.5135 26.0855 5.02132 27.554 5.02132 29.9778V39.452H0V21.9721H4.8792V24.4591C5.8661 22.58 8.00568 21.4589 10.2716 21.4905C12.4112 21.4905 14.3534 22.4458 15.2771 24.4591C16.5877 22.5485 18.9484 21.4905 21.4669 21.4905C23.5354 21.4984 25.225 22.1379 26.5988 23.409Z" fill="white"/>
<path d="M31.9201 17.2193C31.9201 15.5297 33.2307 14.2507 34.9203 14.2507C36.5783 14.2507 37.8889 15.5297 37.8889 17.2193C37.8889 18.9089 36.5783 20.1879 34.9203 20.1879C33.2307 20.1879 31.9201 18.9168 31.9201 17.2193ZM37.3757 39.4521H32.3701V21.9722H37.3757V39.4521Z" fill="white"/>
<path d="M39.8626 36.7123L42.318 33.4595C43.8181 34.9912 45.4761 35.757 47.3235 35.757C48.571 35.757 49.4631 35.2123 49.4631 34.3517C49.4631 33.8385 49.1157 33.428 48.3815 33.0727C48.1288 32.9464 47.4262 32.6937 46.3051 32.3069C45.1919 31.8963 44.426 31.6042 44.0392 31.4147C41.9627 30.4278 40.9127 28.8646 40.9127 26.7881C40.9127 25.1933 41.5206 23.8827 42.7601 22.8958C44.0076 21.9089 45.6656 21.3958 47.7341 21.3958C50.2526 21.3958 52.3607 22.1932 54.0502 23.8196L51.7211 27.0724C50.4106 25.9907 49.0447 25.446 47.6393 25.446C46.5261 25.446 45.8235 25.9592 45.8235 26.6934C45.8235 27.3329 46.3366 27.8066 47.3867 28.1619C49.2658 28.7698 50.6395 29.2751 51.5317 29.7567C53.5054 30.8068 54.5002 32.2753 54.5002 34.2254C54.5002 35.8518 53.8291 37.2255 52.5264 38.3072C51.2159 39.3888 49.4947 39.9336 47.3314 39.9336C44.2286 39.9336 41.7417 38.844 39.8626 36.7123Z" fill="white"/>
<path d="M70.1563 38.4652C68.6563 39.4205 66.872 39.9021 64.7955 39.9021C60.619 39.9021 58.5426 37.5414 58.5426 32.8517V26.125H55.7714V21.9801H58.5742V15.7903H63.5481V21.9801H69.1616V26.125H63.556V32.3701C63.556 34.3439 64.3218 35.3387 65.8851 35.3387C66.6825 35.3387 67.6378 35.0545 68.7589 34.4781L70.1563 38.4652Z" fill="white"/>
<path d="M88.9784 32.4017H76.125C76.733 34.6044 78.3278 35.686 80.8779 35.686C82.8517 35.686 84.6755 35.1097 86.3335 33.9965L88.3073 37.4072C86.1677 39.0336 83.6176 39.831 80.6569 39.831C77.562 39.831 75.2013 38.9388 73.5433 37.1861C71.9169 35.4334 71.0879 33.2622 71.0879 30.6805C71.0879 28.0356 71.9485 25.8645 73.6381 24.1433C75.3276 22.3906 77.562 21.53 80.3016 21.53C82.8833 21.53 84.9913 22.3274 86.6493 23.8907C88.3073 25.4539 89.1363 27.5935 89.1363 30.3015C89.1363 30.9016 89.0731 31.6042 88.9784 32.4017ZM76.0935 28.833H84.3202C83.8386 26.8277 82.378 25.5802 80.3016 25.5802C78.2567 25.5802 76.6303 26.7882 76.0935 28.833Z" fill="white"/>
<path d="M92.0653 39.452V21.9721H96.8498V24.238C97.963 22.4221 99.5263 21.4984 101.603 21.4984C102.274 21.4984 102.976 21.6247 103.774 21.9169L103.355 26.7013C102.621 26.4487 101.887 26.3145 101.153 26.3145C98.6973 26.3145 97.0709 27.9093 97.0709 31.4779V39.452H92.0653Z" fill="white"/>
<path d="M108.298 21.8458C108.298 16.8719 110.911 14.3218 115.159 14.3218C116.911 14.3218 118.506 14.7402 120.006 15.5692L118.696 19.4299C117.646 18.9167 116.754 18.6641 116.019 18.6641C114.33 18.6641 113.28 19.6826 113.28 21.5063V21.9879H118.704V26.1329H113.28V39.4599H108.306V26.125H105.724V21.9801H108.306V21.8458H108.298ZM120.93 17.1877C120.93 15.4981 122.241 14.2191 123.93 14.2191C125.588 14.2191 126.899 15.4981 126.899 17.1877C126.899 18.8773 125.588 20.1563 123.93 20.1563C122.241 20.1563 120.93 18.8852 120.93 17.1877ZM121.38 39.452V21.9722H126.386V39.452H121.38Z" fill="white"/>
<path d="M164.606 37.1545C164.606 35.5913 165.814 34.3833 167.448 34.3833C168.98 34.3833 170.188 35.6307 170.188 37.1545C170.188 38.7809 168.98 39.9573 167.448 39.9573C165.814 39.9652 164.606 38.7809 164.606 37.1545Z" fill="white"/>
<path d="M172.991 17.2193C172.991 15.5297 174.301 14.2507 175.991 14.2507C177.649 14.2507 178.959 15.5297 178.959 17.2193C178.959 18.9089 177.649 20.1879 175.991 20.1879C174.293 20.1879 172.991 18.9168 172.991 17.2193ZM178.446 39.4521H173.441V21.9722H178.446V39.4521Z" fill="white"/>
<path d="M194.994 15.1824H200V39.4521H195.152V37.573C193.779 39.1363 192.057 39.9021 189.957 39.9021C187.502 39.9021 185.457 39.0415 183.799 37.2888C182.173 35.5361 181.344 33.3649 181.344 30.72C181.344 28.1067 182.173 25.9356 183.799 24.1828C185.457 22.4301 187.502 21.538 189.957 21.538C191.931 21.538 193.629 22.2406 194.994 23.6776V15.1824ZM193.976 27.4278C193.147 26.5356 192.097 26.0856 190.786 26.0856C189.476 26.0856 188.426 26.5356 187.565 27.4278C186.736 28.3199 186.318 29.4015 186.318 30.6806C186.318 31.9912 186.736 33.1044 187.565 33.9965C188.426 34.8887 189.476 35.3387 190.786 35.3387C192.097 35.3387 193.147 34.8887 193.976 33.9965C194.837 33.1044 195.255 31.9833 195.255 30.6806C195.247 29.4094 194.837 28.3199 193.976 27.4278Z" fill="white"/>
</g>
<defs>
<clipPath id="clip0_7608_32904">
<rect width="200" height="39.9653" fill="white"/>
</clipPath>
</defs>
</svg>
