<svg width="26" height="26" viewBox="0 0 26 26" fill="none" xmlns="http://www.w3.org/2000/svg">
<path d="M20.3415 3.14634H5.6586C4.50494 3.14634 3.56104 4.09024 3.56104 5.2439V19.9268C3.56104 21.0805 4.50494 22.0244 5.6586 22.0244H20.3415C21.4952 22.0244 22.4391 21.0805 22.4391 19.9268V5.2439C22.4391 4.09024 21.4952 3.14634 20.3415 3.14634ZM8.80494 17.8293C8.22811 17.8293 7.75616 17.3573 7.75616 16.7805V11.5366C7.75616 10.9598 8.22811 10.4878 8.80494 10.4878C9.38177 10.4878 9.85372 10.9598 9.85372 11.5366V16.7805C9.85372 17.3573 9.38177 17.8293 8.80494 17.8293ZM13.0001 17.8293C12.4232 17.8293 11.9513 17.3573 11.9513 16.7805V8.39024C11.9513 7.81341 12.4232 7.34146 13.0001 7.34146C13.5769 7.34146 14.0488 7.81341 14.0488 8.39024V16.7805C14.0488 17.3573 13.5769 17.8293 13.0001 17.8293ZM17.1952 17.8293C16.6184 17.8293 16.1464 17.3573 16.1464 16.7805V14.6829C16.1464 14.1061 16.6184 13.6341 17.1952 13.6341C17.772 13.6341 18.244 14.1061 18.244 14.6829V16.7805C18.244 17.3573 17.772 17.8293 17.1952 17.8293Z" fill="#00B7E6"/>
</svg>
