<svg width="26" height="26" viewBox="0 0 26 26" fill="none" xmlns="http://www.w3.org/2000/svg">
<path d="M13.3625 3.05214C11.2544 0.944095 8.09761 0.514095 5.55956 1.75166L9.36663 5.55873C9.77566 5.96775 9.77566 6.62848 9.36663 7.03751L7.69907 8.70507C7.29005 9.12458 6.62932 9.12458 6.22029 8.70507L2.41322 4.898C1.18615 7.44653 1.61615 10.5824 3.72419 12.6904C5.67493 14.6412 8.52761 15.1551 10.9503 14.2426L19.2986 22.5909C20.3788 23.6712 22.1198 23.6712 23.1896 22.5909C24.2698 21.5107 24.2698 19.7697 23.1896 18.6999L14.8832 10.3831C15.8481 7.92897 15.3447 5.03434 13.3625 3.05214Z" fill="#00B7E6"/>
</svg>
