<svg width="26" height="26" viewBox="0 0 26 26" fill="none" xmlns="http://www.w3.org/2000/svg">
<path d="M3.25 8.66667C3.25 9.2625 3.7375 9.75 4.33333 9.75C4.92917 9.75 5.41667 9.2625 5.41667 8.66667V6.5H7.58333C8.17917 6.5 8.66667 6.0125 8.66667 5.41667C8.66667 4.82084 8.17917 4.33334 7.58333 4.33334H5.41667V2.16667C5.41667 1.57084 4.92917 1.08334 4.33333 1.08334C3.7375 1.08334 3.25 1.57084 3.25 2.16667V4.33334H1.08333C0.4875 4.33334 0 4.82084 0 5.41667C0 6.0125 0.4875 6.5 1.08333 6.5H3.25V8.66667Z" fill="#1F312E"/>
<path d="M14.0833 18.4167C15.8782 18.4167 17.3333 16.9616 17.3333 15.1667C17.3333 13.3717 15.8782 11.9167 14.0833 11.9167C12.2883 11.9167 10.8333 13.3717 10.8333 15.1667C10.8333 16.9616 12.2883 18.4167 14.0833 18.4167Z" fill="#1F312E"/>
<path d="M22.75 6.5H19.3158L17.9725 5.0375C17.5717 4.59334 16.9867 4.33334 16.38 4.33334H9.44667C9.63083 4.65834 9.75 5.01584 9.75 5.41667C9.75 6.60834 8.775 7.58334 7.58333 7.58334H6.5V8.66667C6.5 9.85834 5.525 10.8333 4.33333 10.8333C3.9325 10.8333 3.575 10.7142 3.25 10.53V21.6667C3.25 22.8583 4.225 23.8333 5.41667 23.8333H22.75C23.9417 23.8333 24.9167 22.8583 24.9167 21.6667V8.66667C24.9167 7.475 23.9417 6.5 22.75 6.5ZM14.0833 20.5833C11.0933 20.5833 8.66667 18.1567 8.66667 15.1667C8.66667 12.1767 11.0933 9.75 14.0833 9.75C17.0733 9.75 19.5 12.1767 19.5 15.1667C19.5 18.1567 17.0733 20.5833 14.0833 20.5833Z" fill="#1F312E"/>
</svg>
