<svg width="24" height="21" viewBox="0 0 24 21" fill="none" xmlns="http://www.w3.org/2000/svg">
<path d="M15.625 6.00002C15.205 6.00002 14.795 6.04002 14.385 6.11002L1.525 0.600017C0.865 0.310017 0.135 0.800017 0.135 1.51002L0.125 6.20002C0.125 6.67002 0.455 7.08002 0.905 7.18002L9.125 9.00002L0.905 10.83C0.455 10.93 0.125 11.33 0.125 11.8L0.135 16.48C0.135 17.2 0.865 17.68 1.525 17.4L8.205 14.54C8.715 18.19 11.835 21 15.625 21C19.765 21 23.125 17.64 23.125 13.5C23.125 9.36002 19.765 6.00002 15.625 6.00002ZM15.625 19C12.595 19 10.125 16.53 10.125 13.5C10.125 10.47 12.595 8.00002 15.625 8.00002C18.655 8.00002 21.125 10.47 21.125 13.5C21.125 16.53 18.655 19 15.625 19Z" fill="#003E9C"/>
<path d="M17.7448 11.38C17.5448 11.18 17.2348 11.18 17.0348 11.38L15.6248 12.79L14.2148 11.38C14.0148 11.18 13.7048 11.18 13.5048 11.38C13.3048 11.58 13.3048 11.89 13.5048 12.09L14.9148 13.5L13.5048 14.91C13.3048 15.11 13.3048 15.42 13.5048 15.62C13.7048 15.82 14.0148 15.82 14.2148 15.62L15.6248 14.21L17.0348 15.62C17.2348 15.82 17.5448 15.82 17.7448 15.62C17.9448 15.42 17.9448 15.11 17.7448 14.91L16.3348 13.5L17.7448 12.09C17.9448 11.89 17.9448 11.57 17.7448 11.38Z" fill="#003E9C"/>
</svg>
