<svg width="35" height="35" viewBox="0 0 35 35" fill="none" xmlns="http://www.w3.org/2000/svg">
<path d="M17.4998 2.91675C9.44984 2.91675 2.9165 9.45008 2.9165 17.5001C2.9165 25.5501 9.44984 32.0834 17.4998 32.0834C25.5498 32.0834 32.0832 25.5501 32.0832 17.5001C32.0832 9.45008 25.5498 2.91675 17.4998 2.91675ZM17.4998 29.1668C11.0686 29.1668 5.83317 23.9313 5.83317 17.5001C5.83317 11.0688 11.0686 5.83342 17.4998 5.83342C23.9311 5.83342 29.1665 11.0688 29.1665 17.5001C29.1665 23.9313 23.9311 29.1668 17.4998 29.1668ZM23.1582 12.0897L14.5832 20.6647L11.8415 17.923C11.2728 17.3542 10.354 17.3542 9.78525 17.923C9.2165 18.4917 9.2165 19.4105 9.78525 19.9792L13.5623 23.7563C14.1311 24.3251 15.0498 24.3251 15.6186 23.7563L25.229 14.1459C25.7978 13.5772 25.7978 12.6584 25.229 12.0897C24.6603 11.5209 23.7269 11.5209 23.1582 12.0897Z" fill="#00B7E6"/>
</svg>
