<svg width="21" height="16" viewBox="0 0 21 16" fill="none" xmlns="http://www.w3.org/2000/svg">
<path d="M15.625 12C15.075 12 14.625 11.55 14.625 11H6.625C6.625 11.55 6.175 12 5.625 12C5.075 12 4.625 11.55 4.625 11H0.625V14C0.625 15.1 1.525 16 2.625 16H18.625C19.725 16 20.625 15.1 20.625 14V11H16.625C16.625 11.55 16.175 12 15.625 12Z" fill="#00B7E6"/>
<path d="M18.625 4H15.625V2C15.625 0.9 14.725 0 13.625 0H7.625C6.525 0 5.625 0.9 5.625 2V4H2.625C1.525 4 0.625 4.9 0.625 6V10H4.625V9C4.625 8.45 5.075 8 5.625 8C6.175 8 6.625 8.45 6.625 9V10H14.625V9C14.625 8.45 15.075 8 15.625 8C16.175 8 16.625 8.45 16.625 9V10H20.625V6C20.625 4.9 19.725 4 18.625 4ZM13.625 4H7.625V2H13.625V4Z" fill="#00B7E6"/>
</svg>
