<svg width="21" height="14" viewBox="0 0 21 14" fill="none" xmlns="http://www.w3.org/2000/svg">
<path d="M11.375 4H1.375C0.825 4 0.375 4.45 0.375 5C0.375 5.55 0.825 6 1.375 6H11.375C11.925 6 12.375 5.55 12.375 5C12.375 4.45 11.925 4 11.375 4ZM11.375 0H1.375C0.825 0 0.375 0.45 0.375 1C0.375 1.55 0.825 2 1.375 2H11.375C11.925 2 12.375 1.55 12.375 1C12.375 0.45 11.925 0 11.375 0ZM1.375 10H7.375C7.925 10 8.375 9.55 8.375 9C8.375 8.45 7.925 8 7.375 8H1.375C0.825 8 0.375 8.45 0.375 9C0.375 9.55 0.825 10 1.375 10ZM20.585 6.21L20.675 6.3C21.065 6.69 21.065 7.32 20.675 7.71L15.095 13.3C14.705 13.69 14.075 13.69 13.685 13.3L10.595 10.21C10.205 9.82 10.205 9.19 10.595 8.8L10.685 8.71C11.075 8.32 11.705 8.32 12.095 8.71L14.395 11.01L19.175 6.22C19.555 5.82 20.195 5.82 20.585 6.21Z" fill="#003E9C"/>
</svg>
