<svg width="88" height="88" viewBox="0 0 88 88" fill="none" xmlns="http://www.w3.org/2000/svg">
<g filter="url(#filter0_dd_7830_24541)">
<rect x="11" y="7" width="66" height="66" rx="16" fill="#00B7E6"/>
<path opacity="0.12" d="M77 42.515V68.625C77 71.0412 75.3314 73 73.2732 73H27C29.2743 53.2362 43.702 38 61.161 38C66.8713 38 72.2574 39.6299 77 42.515Z" fill="#00201B"/>
<path fill-rule="evenodd" clip-rule="evenodd" d="M56.8734 38.4626H45.8186V27.4078C45.8186 26.4817 45.0676 25.7297 44.1406 25.7297C43.2136 25.7297 42.4626 26.4817 42.4626 27.4078V38.4626H31.4087C30.4817 38.4626 29.7297 39.2136 29.7297 40.1406C29.7297 41.0676 30.4817 41.8186 31.4087 41.8186H42.4626V52.8734C42.4626 53.8005 43.2136 54.5515 44.1406 54.5515C45.0676 54.5515 45.8186 53.8005 45.8186 52.8734V41.8186H56.8734C57.8005 41.8186 58.5515 41.0676 58.5515 40.1406C58.5515 39.2136 57.8005 38.4626 56.8734 38.4626Z" fill="white"/>
</g>
<defs>
<filter id="filter0_dd_7830_24541" x="0" y="0" width="88" height="88" filterUnits="userSpaceOnUse" color-interpolation-filters="sRGB">
<feFlood flood-opacity="0" result="BackgroundImageFix"/>
<feColorMatrix in="SourceAlpha" type="matrix" values="0 0 0 0 0 0 0 0 0 0 0 0 0 0 0 0 0 0 127 0" result="hardAlpha"/>
<feOffset dy="1"/>
<feGaussianBlur stdDeviation="1.5"/>
<feColorMatrix type="matrix" values="0 0 0 0 0 0 0 0 0 0 0 0 0 0 0 0 0 0 0.3 0"/>
<feBlend mode="normal" in2="BackgroundImageFix" result="effect1_dropShadow_7830_24541"/>
<feColorMatrix in="SourceAlpha" type="matrix" values="0 0 0 0 0 0 0 0 0 0 0 0 0 0 0 0 0 0 127 0" result="hardAlpha"/>
<feMorphology radius="3" operator="dilate" in="SourceAlpha" result="effect2_dropShadow_7830_24541"/>
<feOffset dy="4"/>
<feGaussianBlur stdDeviation="4"/>
<feColorMatrix type="matrix" values="0 0 0 0 0 0 0 0 0 0 0 0 0 0 0 0 0 0 0.15 0"/>
<feBlend mode="normal" in2="effect1_dropShadow_7830_24541" result="effect2_dropShadow_7830_24541"/>
<feBlend mode="normal" in="SourceGraphic" in2="effect2_dropShadow_7830_24541" result="shape"/>
</filter>
</defs>
</svg>
