<svg width="26" height="26" viewBox="0 0 26 26" fill="none" xmlns="http://www.w3.org/2000/svg">
<g clip-path="url(#clip0_7608_30774)">
<path d="M25.7465 13.2996C25.7465 12.4159 25.6749 11.5274 25.522 10.6581H13.26V15.6641H20.2819C19.9905 17.2787 19.0543 18.7069 17.6833 19.6145V22.8627H21.8726C24.3326 20.5985 25.7465 17.2548 25.7465 13.2996Z" fill="#4285F4"/>
<path d="M13.2599 26.0009C16.766 26.0009 19.7229 24.8497 21.8772 22.8625L17.688 19.6143C16.5224 20.4073 15.0177 20.8563 13.2647 20.8563C9.87315 20.8563 6.99753 18.5682 5.96575 15.492H1.64276V18.8405C3.84963 23.2304 8.34458 26.0009 13.2599 26.0009Z" fill="#34A853"/>
<path d="M5.96109 15.4921C5.41654 13.8775 5.41654 12.1292 5.96109 10.5147V7.16614H1.64289C-0.200949 10.8395 -0.200949 15.1672 1.64289 18.8406L5.96109 15.4921Z" fill="#FBBC04"/>
<path d="M13.2599 5.14547C15.1133 5.1168 16.9046 5.81421 18.2468 7.09439L21.9584 3.38283C19.6082 1.17596 16.489 -0.0373382 13.2599 0.000876055C8.34458 0.000876055 3.84963 2.77141 1.64276 7.16604L5.96097 10.5146C6.98797 7.43354 9.86837 5.14547 13.2599 5.14547Z" fill="#EA4335"/>
</g>
<defs>
<clipPath id="clip0_7608_30774">
<rect width="26" height="26" fill="white"/>
</clipPath>
</defs>
</svg>
