<svg width="24" height="24" viewBox="0 0 24 24" fill="none" xmlns="http://www.w3.org/2000/svg">
<path d="M21.3333 0H2.66667C1.2 0 0 1.2 0 2.66667V21.3333C0 22.8 1.2 24 2.66667 24H21.3333C22.8 24 24 22.8 24 21.3333V2.66667C24 1.2 22.8 0 21.3333 0ZM6.66667 18.6667C5.93333 18.6667 5.33333 18.0667 5.33333 17.3333V10.6667C5.33333 9.93333 5.93333 9.33333 6.66667 9.33333C7.4 9.33333 8 9.93333 8 10.6667V17.3333C8 18.0667 7.4 18.6667 6.66667 18.6667ZM12 18.6667C11.2667 18.6667 10.6667 18.0667 10.6667 17.3333V6.66667C10.6667 5.93333 11.2667 5.33333 12 5.33333C12.7333 5.33333 13.3333 5.93333 13.3333 6.66667V17.3333C13.3333 18.0667 12.7333 18.6667 12 18.6667ZM17.3333 18.6667C16.6 18.6667 16 18.0667 16 17.3333V14.6667C16 13.9333 16.6 13.3333 17.3333 13.3333C18.0667 13.3333 18.6667 13.9333 18.6667 14.6667V17.3333C18.6667 18.0667 18.0667 18.6667 17.3333 18.6667Z" fill="#323232"/>
</svg>
