<svg width="21" height="20" viewBox="0 0 21 20" fill="none" xmlns="http://www.w3.org/2000/svg">
<path d="M5.875 2C5.875 0.89 4.985 0 3.875 0C2.765 0 1.875 0.89 1.875 2C1.875 3.11 2.765 4 3.875 4C4.985 4 5.875 3.11 5.875 2ZM9.065 2.5C8.655 2.5 8.305 2.75 8.145 3.13C7.705 4.23 6.635 5 5.375 5H2.375C1.545 5 0.875 5.67 0.875 6.5V9H6.875V6.74C8.305 6.29 9.455 5.21 9.995 3.83C10.255 3.19 9.755 2.5 9.065 2.5ZM17.875 15C18.985 15 19.875 14.11 19.875 13C19.875 11.89 18.985 11 17.875 11C16.765 11 15.875 11.89 15.875 13C15.875 14.11 16.765 15 17.875 15ZM19.375 16H16.375C15.115 16 14.045 15.23 13.605 14.13C13.455 13.75 13.095 13.5 12.685 13.5C11.995 13.5 11.495 14.19 11.745 14.83C12.295 16.21 13.435 17.29 14.865 17.74V20H20.865V17.5C20.875 16.67 20.205 16 19.375 16ZM16.125 9.09C16.125 9.09 16.125 9.08 16.135 9.09C15.075 9.36 14.235 10.2 13.965 11.26V11.25C13.855 11.68 13.455 12 12.985 12C12.435 12 11.985 11.55 11.985 11C11.985 10.95 12.005 10.86 12.005 10.86C12.435 9.01 13.895 7.55 15.755 7.13C15.795 7.13 15.835 7.12 15.875 7.12C16.425 7.12 16.875 7.57 16.875 8.12C16.875 8.58 16.555 8.98 16.125 9.09ZM16.875 4.06C16.875 4.57 16.505 4.98 16.015 5.05C12.825 5.44 10.315 7.96 9.925 11.15C9.855 11.63 9.435 12 8.935 12C8.385 12 7.935 11.55 7.935 11C7.935 10.98 7.935 10.96 7.935 10.94C7.935 10.93 7.935 10.92 7.935 10.91C8.435 6.79 11.725 3.53 15.855 3.06H15.865C16.425 3.06 16.875 3.51 16.875 4.06Z" fill="#00B7E6"/>
</svg>
