<svg width="26" height="24" viewBox="0 0 26 24" fill="none" xmlns="http://www.w3.org/2000/svg">
<path fill-rule="evenodd" clip-rule="evenodd" d="M1.79995 0.799988C1.3756 0.799988 0.968638 0.968559 0.66858 1.26862C0.368522 1.56868 0.199951 1.97564 0.199951 2.39999V21.6C0.199951 22.0243 0.368522 22.4313 0.66858 22.7314C0.968638 23.0314 1.3756 23.2 1.79995 23.2C2.2243 23.2 2.63126 23.0314 2.93132 22.7314C3.23138 22.4313 3.39995 22.0243 3.39995 21.6V2.39999C3.39995 1.97564 3.23138 1.56868 2.93132 1.26862C2.63126 0.968559 2.2243 0.799988 1.79995 0.799988ZM18.2688 15.6688C17.9773 15.9706 17.816 16.3747 17.8197 16.7942C17.8233 17.2137 17.9916 17.615 18.2882 17.9117C18.5849 18.2084 18.9862 18.3766 19.4057 18.3803C19.8252 18.3839 20.2294 18.2226 20.5311 17.9312L25.3312 13.1312C25.6311 12.8311 25.7996 12.4243 25.7996 12C25.7996 11.5757 25.6311 11.1688 25.3312 10.8688L20.5311 6.06879C20.3836 5.91597 20.207 5.79408 20.0118 5.71023C19.8166 5.62637 19.6066 5.58223 19.3942 5.58039C19.1817 5.57854 18.9711 5.61902 18.7744 5.69947C18.5778 5.77992 18.3991 5.89873 18.2489 6.04896C18.0987 6.19918 17.9799 6.37783 17.8994 6.57446C17.819 6.7711 17.7785 6.98178 17.7803 7.19423C17.7822 7.40668 17.8263 7.61663 17.9102 7.81184C17.994 8.00704 18.1159 8.18359 18.2688 8.33119L20.3376 10.4H8.19995C7.7756 10.4 7.36864 10.5686 7.06858 10.8686C6.76852 11.1687 6.59995 11.5756 6.59995 12C6.59995 12.4243 6.76852 12.8313 7.06858 13.1314C7.36864 13.4314 7.7756 13.6 8.19995 13.6H20.3376L18.2688 15.6688Z" fill="black"/>
</svg>
