<svg width="22" height="22" viewBox="0 0 22 22" fill="none" xmlns="http://www.w3.org/2000/svg">
<path d="M11.5898 1.91017C9.57976 -0.0998321 6.56976 -0.509832 4.14976 0.670168L7.77976 4.30017C8.16976 4.69017 8.16976 5.32017 7.77976 5.71017L6.18976 7.30017C5.79976 7.70017 5.16976 7.70017 4.77976 7.30017L1.14976 3.67017C-0.0202407 6.10017 0.389759 9.09017 2.39976 11.1002C4.25976 12.9602 6.97976 13.4502 9.28976 12.5802L17.2498 20.5402C18.2798 21.5702 19.9398 21.5702 20.9598 20.5402C21.9898 19.5102 21.9898 17.8502 20.9598 16.8302L13.0398 8.90017C13.9598 6.56017 13.4798 3.80017 11.5898 1.91017Z" fill="#003E9C"/>
</svg>
