<svg width="22" height="22" viewBox="0 0 22 22" fill="none" xmlns="http://www.w3.org/2000/svg">
<path d="M11.5898 1.91002C9.57976 -0.0999846 6.56976 -0.509985 4.14976 0.670015L7.77976 4.30002C8.16976 4.69002 8.16976 5.32002 7.77976 5.71002L6.18976 7.30002C5.79976 7.70002 5.16976 7.70002 4.77976 7.30002L1.14976 3.67002C-0.0202407 6.10002 0.389759 9.09002 2.39976 11.1C4.25976 12.96 6.97976 13.45 9.28976 12.58L17.2498 20.54C18.2798 21.57 19.9398 21.57 20.9598 20.54C21.9898 19.51 21.9898 17.85 20.9598 16.83L13.0398 8.90001C13.9598 6.56001 13.4798 3.80002 11.5898 1.91002Z" fill="#00B7E6"/>
</svg>
