<svg width="24" height="25" viewBox="0 0 24 25" fill="none" xmlns="http://www.w3.org/2000/svg">
<path fill-rule="evenodd" clip-rule="evenodd" d="M12 10.4C13.2731 10.4 14.494 9.89429 15.3942 8.99411C16.2943 8.09394 16.8001 6.87304 16.8001 5.6C16.8001 4.32696 16.2943 3.10606 15.3942 2.20589C14.494 1.30571 13.2731 0.799999 12 0.799999C10.727 0.799999 9.50611 1.30571 8.60594 2.20589C7.70576 3.10606 7.20005 4.32696 7.20005 5.6C7.20005 6.87304 7.70576 8.09394 8.60594 8.99411C9.50611 9.89429 10.727 10.4 12 10.4ZM0.800049 24.8C0.800049 23.3292 1.08975 21.8728 1.6526 20.5139C2.21545 19.1551 3.04044 17.9204 4.08045 16.8804C5.12047 15.8404 6.35515 15.0154 7.71399 14.4525C9.07284 13.8897 10.5292 13.6 12 13.6C13.4709 13.6 14.9273 13.8897 16.2861 14.4525C17.645 15.0154 18.8796 15.8404 19.9196 16.8804C20.9597 17.9204 21.7846 19.1551 22.3475 20.5139C22.9104 21.8728 23.2001 23.3292 23.2001 24.8H0.800049Z" fill="black"/>
</svg>
