<svg width="26" height="26" viewBox="0 0 26 26" fill="none" xmlns="http://www.w3.org/2000/svg">
<path fill-rule="evenodd" clip-rule="evenodd" d="M15.384 2.072C14.776 -0.424003 11.224 -0.424003 10.616 2.072C10.5253 2.44706 10.3472 2.7954 10.0964 3.08865C9.84557 3.38191 9.52905 3.61181 9.17259 3.75963C8.81613 3.90745 8.42981 3.96903 8.04506 3.93934C7.66031 3.90966 7.288 3.78955 6.95844 3.5888C4.76324 2.2512 2.25124 4.7632 3.58884 6.9584C4.45284 8.376 3.68644 10.2256 2.07364 10.6176C-0.423961 11.224 -0.423961 14.7776 2.07364 15.3824C2.4488 15.4733 2.7972 15.6515 3.09046 15.9025C3.38371 16.1535 3.61354 16.4703 3.76122 16.8269C3.9089 17.1836 3.97027 17.57 3.94031 17.9549C3.91036 18.3398 3.78993 18.7121 3.58884 19.0416C2.25124 21.2368 4.76324 23.7488 6.95844 22.4112C7.28794 22.2101 7.66028 22.0897 8.04514 22.0597C8.42999 22.0298 8.81648 22.0911 9.17313 22.2388C9.52978 22.3865 9.84651 22.6163 10.0975 22.9096C10.3485 23.2028 10.5268 23.5512 10.6176 23.9264C11.224 26.424 14.7776 26.424 15.3824 23.9264C15.4736 23.5514 15.652 23.2033 15.9031 22.9102C16.1542 22.6172 16.4708 22.3875 16.8274 22.2398C17.1839 22.0922 17.5703 22.0308 17.955 22.0606C18.3398 22.0903 18.7121 22.2105 19.0416 22.4112C21.2368 23.7488 23.7488 21.2368 22.4112 19.0416C22.2105 18.712 22.0904 18.3397 22.0606 17.955C22.0308 17.5702 22.0923 17.1839 22.2399 16.8273C22.3875 16.4708 22.6172 16.1541 22.9103 15.903C23.2033 15.652 23.5515 15.4736 23.9264 15.3824C26.424 14.776 26.424 11.2224 23.9264 10.6176C23.5513 10.5267 23.2029 10.3485 22.9096 10.0975C22.6164 9.84647 22.3865 9.52973 22.2389 9.17308C22.0912 8.81643 22.0298 8.42995 22.0598 8.04509C22.0897 7.66024 22.2102 7.2879 22.4112 6.9584C23.7488 4.7632 21.2368 2.2512 19.0416 3.5888C18.7121 3.78989 18.3398 3.91031 17.9549 3.94027C17.5701 3.97022 17.1836 3.90886 16.827 3.76118C16.4703 3.6135 16.1536 3.38367 15.9026 3.09041C15.6515 2.79716 15.4733 2.44876 15.3824 2.0736L15.384 2.072ZM13 17.8C14.2731 17.8 15.494 17.2943 16.3942 16.3941C17.2943 15.4939 17.8 14.273 17.8 13C17.8 11.727 17.2943 10.5061 16.3942 9.60588C15.494 8.70571 14.2731 8.2 13 8.2C11.727 8.2 10.5061 8.70571 9.60593 9.60588C8.70575 10.5061 8.20004 11.727 8.20004 13C8.20004 14.273 8.70575 15.4939 9.60593 16.3941C10.5061 17.2943 11.727 17.8 13 17.8Z" fill="black"/>
</svg>
