<svg width="26" height="26" viewBox="0 0 26 26" fill="none" xmlns="http://www.w3.org/2000/svg">
<path d="M12.5853 2.09756C6.79607 2.09756 2.09753 6.7961 2.09753 12.5854C2.09753 18.3746 6.79607 23.0732 12.5853 23.0732C18.3746 23.0732 23.0731 18.3746 23.0731 12.5854C23.0731 6.7961 18.3746 2.09756 12.5853 2.09756ZM14.0641 18.9724V19.5807C14.0641 20.3463 13.4349 20.9756 12.6692 20.9756H12.6588C11.8931 20.9756 11.2639 20.3463 11.2639 19.5807V18.9515C9.869 18.6578 8.63144 17.8922 8.10705 16.6022C7.86583 16.0254 8.3168 15.3856 8.94607 15.3856H9.19778C9.58583 15.3856 9.90046 15.6478 10.0473 16.0149C10.3514 16.8015 11.1485 17.3468 12.6797 17.3468C14.7353 17.3468 15.1968 16.319 15.1968 15.6793C15.1968 14.8088 14.7353 13.9907 12.3966 13.4349C9.79558 12.8056 8.01266 11.7359 8.01266 9.58585C8.01266 7.78195 9.47046 6.60732 11.2744 6.21927V5.59C11.2744 4.82439 11.9036 4.19512 12.6692 4.19512H12.6797C13.4453 4.19512 14.0746 4.82439 14.0746 5.59V6.24024C15.5219 6.59683 16.4344 7.49878 16.8329 8.61049C17.0427 9.18732 16.6022 9.79561 15.9834 9.79561H15.7107C15.3227 9.79561 15.008 9.52293 14.9031 9.14537C14.6619 8.34829 14.0012 7.83439 12.6797 7.83439C11.1066 7.83439 10.1627 8.54756 10.1627 9.55439C10.1627 10.4354 10.8444 11.0122 12.9629 11.5576C15.0814 12.1029 17.3468 13.0154 17.3468 15.6583C17.3258 17.5776 15.889 18.6263 14.0641 18.9724Z" fill="#00B7E6"/>
</svg>
