<svg width="14" height="13" viewBox="0 0 14 13" fill="none" xmlns="http://www.w3.org/2000/svg">
<path d="M12.7374 4.78L9.10737 4.465L7.68987 1.1275C7.43487 0.52 6.56487 0.52 6.30987 1.1275L4.89237 4.4725L1.26987 4.78C0.609871 4.8325 0.339871 5.6575 0.842371 6.0925L3.59487 8.4775L2.76987 12.0175C2.61987 12.6625 3.31737 13.1725 3.88737 12.8275L6.99987 10.9525L10.1124 12.835C10.6824 13.18 11.3799 12.67 11.2299 12.025L10.4049 8.4775L13.1574 6.0925C13.6599 5.6575 13.3974 4.8325 12.7374 4.78ZM6.99987 9.55L4.17987 11.2525L4.92987 8.0425L2.43987 5.8825L5.72487 5.5975L6.99987 2.575L8.28237 5.605L11.5674 5.89L9.07737 8.05L9.82737 11.26L6.99987 9.55Z" fill="white"/>
</svg>
